<svg width="22" height="22" viewBox="0 0 22 22" fill="none" xmlns="http://www.w3.org/2000/svg">
<g clip-path="url(#clip0_355_1026)">
<path d="M15.3186 15.1182V14.0854C15.3186 13.5375 15.101 13.0121 14.7136 12.6247C14.3262 12.2374 13.8008 12.0197 13.253 12.0197H9.12177C8.57393 12.0197 8.04853 12.2374 7.66116 12.6247C7.27378 13.0121 7.05615 13.5375 7.05615 14.0854V15.1182" stroke="white" stroke-width="2" stroke-linecap="round" stroke-linejoin="round"/>
<path d="M11.1877 9.95413C12.3285 9.95413 13.2533 9.02933 13.2533 7.88852C13.2533 6.74771 12.3285 5.82291 11.1877 5.82291C10.0469 5.82291 9.12207 6.74771 9.12207 7.88852C9.12207 9.02933 10.0469 9.95413 11.1877 9.95413Z" stroke="white" stroke-width="2" stroke-linecap="round" stroke-linejoin="round"/>
</g>
<circle cx="10.9738" cy="10.6842" r="9.68421" stroke="white" stroke-width="2"/>
<defs>
<clipPath id="clip0_355_1026">
<rect width="12.3937" height="12.3937" fill="white" transform="translate(4.99072 4.27368)"/>
</clipPath>
</defs>
</svg>
