<svg width="17" height="14" viewBox="0 0 17 14" fill="none" xmlns="http://www.w3.org/2000/svg">
<path d="M15.9977 0.263948C15.7449 0.03237 15.3857 -0.0448022 15.0601 0.0625023L1.2462 4.61615C0.86973 4.74024 0.614433 5.0763 0.595808 5.47222C0.577213 5.86818 0.79983 6.22673 1.16295 6.38565L4.57924 7.88036C4.5959 7.95769 5.57662 12.5063 5.60997 12.6609C5.65278 12.8595 5.75358 13.0364 5.96711 13.0908C6.1831 13.1458 6.3357 13.0278 6.49685 12.9071C6.58654 12.84 9.03203 11.0088 9.03203 11.0088L11.9958 13.4341C12.1685 13.5754 12.3795 13.6491 12.5946 13.6491C12.697 13.6491 12.8004 13.6324 12.901 13.5983C13.2129 13.4925 13.4442 13.2379 13.5196 12.9173L16.2802 1.18032C16.3586 0.846621 16.2504 0.495526 15.9977 0.263948ZM6.71769 8.73687C6.716 8.74086 6.71435 8.74537 6.71278 8.75077L6.14131 10.7474L5.50356 7.78951L9.88893 5.35298L6.82288 8.55886C6.77458 8.60937 6.73905 8.67043 6.71769 8.73687ZM6.89907 11.4532L7.15863 10.5463L7.4069 9.67892L8.29648 10.4069L6.89907 11.4532ZM15.382 0.969022L12.6214 12.706C12.62 12.7118 12.6182 12.7199 12.6047 12.7244C12.5913 12.729 12.5848 12.7238 12.5802 12.72L9.33709 10.0661C9.337 10.0661 9.33694 10.066 9.33685 10.0659L7.83425 8.83632L12.6617 3.78874C12.8193 3.62387 12.8328 3.36854 12.6934 3.18796C12.554 3.00735 12.3035 2.95577 12.1042 3.0666L4.95611 7.0381L1.53283 5.54028C1.52239 5.53574 1.51666 5.53319 1.51749 5.51555C1.51831 5.49797 1.52427 5.49597 1.53507 5.49241L15.349 0.938797C15.3557 0.936619 15.3632 0.934103 15.3743 0.944229C15.3854 0.954416 15.3836 0.962149 15.382 0.969022Z" fill="black"/>
</svg>
