<svg width="16" height="14" viewBox="0 0 16 14" fill="none" xmlns="http://www.w3.org/2000/svg">
<path d="M15.2417 0.940573C14.6149 1.38275 13.9208 1.72094 13.1862 1.94212C12.792 1.48881 12.268 1.16752 11.6852 1.0217C11.1025 0.875872 10.4889 0.912553 9.92766 1.12678C9.36639 1.341 8.88445 1.72244 8.54702 2.21949C8.2096 2.71655 8.03297 3.30524 8.04102 3.90595V4.56055C6.89064 4.59038 5.75073 4.33525 4.72282 3.81787C3.69491 3.30049 2.81091 2.53692 2.14955 1.59518C2.14955 1.59518 -0.468885 7.48665 5.42259 10.1051C4.07444 11.0202 2.46845 11.4791 0.840332 11.4143C6.73181 14.6873 13.9325 11.4143 13.9325 3.88631C13.9319 3.70397 13.9144 3.52208 13.8801 3.34298C14.5482 2.68412 15.0197 1.85225 15.2417 0.940573V0.940573Z" stroke="black" stroke-width="1.24031" stroke-linecap="round" stroke-linejoin="round"/>
</svg>
