<svg width="17" height="17" viewBox="0 0 17 17" fill="none" xmlns="http://www.w3.org/2000/svg">
<path d="M11.8297 10.3422L11.8239 10.3913C10.3844 9.67388 10.2338 9.57831 10.0479 9.85717C9.91894 10.0503 9.5432 10.4882 9.42995 10.6178C9.3154 10.7455 9.20149 10.7553 9.00708 10.6669C8.81069 10.5687 8.18031 10.3625 7.43405 9.69483C6.85276 9.17441 6.46261 8.53617 6.3474 8.33979C6.1556 8.00856 6.55688 7.96143 6.92215 7.27016C6.98761 7.13269 6.95422 7.02468 6.90578 6.92715C6.85669 6.82895 6.46589 5.86668 6.30224 5.48308C6.14513 5.10079 5.98344 5.14923 5.86234 5.14923C5.48528 5.1165 5.20969 5.12174 4.96683 5.37442C3.9103 6.53569 4.17672 7.73362 5.08074 9.00749C6.85734 11.3327 7.80391 11.7608 9.53469 12.3552C10.0021 12.5037 10.4282 12.4828 10.7654 12.4344C11.1411 12.3748 11.922 11.9624 12.085 11.5009C12.252 11.0394 12.252 10.6564 12.2029 10.5681C12.1544 10.4797 12.0261 10.4306 11.8297 10.3422Z" fill="black"/>
<path d="M13.8017 3.23436C8.76842 -1.63134 0.438529 1.89765 0.435256 8.76187C0.435256 10.1339 0.794636 11.4719 1.47936 12.6535L0.369141 16.6872L4.51608 15.6058C9.69076 18.401 16.0771 14.6893 16.0797 8.7658C16.0797 6.68676 15.268 4.73014 13.7919 3.25989L13.8017 3.23436ZM14.7718 8.7442C14.7679 13.7408 9.28294 16.8613 4.94485 14.311L4.70919 14.1709L2.25441 14.8091L2.91229 12.4231L2.75584 12.1776C0.0562378 7.88012 3.15777 2.26358 8.27157 2.26358C10.0089 2.26358 11.6395 2.9411 12.8676 4.16849C14.095 5.3854 14.7718 7.01603 14.7718 8.7442Z" fill="black"/>
</svg>
